<svg width="141" height="39" viewBox="0 0 50 40" fill="none" xmlns="http://www.w3.org/2000/svg">
<path d="M19.2752 0.899135C19.6513 -0.299712 21.3473 -0.299712 21.7234 0.899135L23.2518 5.76925C23.3746 6.16066 23.6775 6.47008 24.0662 6.60128L28.1258 7.9714C28.5005 8.09789 28.7531 8.35527 28.8865 8.65792C28.9006 8.68989 28.9122 8.72268 28.9236 8.75558C28.931 8.77683 28.9399 8.79748 28.9461 8.81906C28.9622 8.87456 28.9746 8.931 28.9832 8.988C28.9854 9.00255 28.9854 9.01734 28.9871 9.03195C28.9923 9.07612 28.9961 9.1203 28.9969 9.16476C28.9972 9.18433 28.9964 9.20379 28.9959 9.22335C28.9948 9.26356 28.9918 9.3035 28.9871 9.34347C28.9845 9.36574 28.9811 9.38776 28.9773 9.40988C28.9712 9.44609 28.963 9.48168 28.9539 9.5173C28.9483 9.53912 28.944 9.5612 28.9373 9.58273C28.9249 9.62256 28.9097 9.66135 28.8934 9.69992C28.868 9.75972 28.8392 9.81803 28.8045 9.87374C28.7996 9.88157 28.7949 9.88945 28.7898 9.89718C28.7638 9.93711 28.7349 9.97531 28.7039 10.0124C28.6998 10.0174 28.6954 10.0222 28.6912 10.0271C28.6272 10.1013 28.5536 10.1688 28.4695 10.2282C28.4585 10.236 28.4477 10.2442 28.4363 10.2517C28.397 10.2776 28.3558 10.3018 28.3123 10.3239C28.3011 10.3297 28.2896 10.3351 28.2781 10.3405C28.2297 10.3635 28.1791 10.3851 28.1258 10.403L24.0662 11.7741C23.6775 11.9053 23.3746 12.2148 23.2518 12.6062L21.7234 17.4763C21.598 17.8759 21.3248 18.139 21.0037 18.2722C20.9708 18.2859 20.938 18.2994 20.9041 18.3103C20.8784 18.3185 20.8521 18.3241 20.826 18.3308C20.7936 18.339 20.7612 18.3465 20.7283 18.3523C20.701 18.357 20.6738 18.3609 20.6463 18.364C20.6131 18.3677 20.58 18.3706 20.5467 18.3718C20.5167 18.3729 20.4868 18.3727 20.4568 18.3718C20.4232 18.3707 20.3897 18.3685 20.3563 18.365C20.3327 18.3624 20.3093 18.3599 20.2859 18.3562C20.2424 18.3491 20.1997 18.3392 20.157 18.3278C20.1398 18.3232 20.1224 18.3195 20.1053 18.3142C20.0514 18.2974 19.9985 18.2775 19.9471 18.2536C19.842 18.205 19.7427 18.1423 19.6531 18.0642C19.6469 18.0587 19.6407 18.0532 19.6346 18.0476C19.5961 18.0126 19.5597 17.9748 19.5252 17.9343C19.5234 17.9322 19.5211 17.9305 19.5193 17.9284L19.4725 17.8698C19.3893 17.7575 19.3222 17.6261 19.2752 17.4763L17.7469 12.6062C17.6241 12.2148 17.3211 11.9053 16.9324 11.7741L12.8729 10.403C11.709 10.0102 11.709 8.36426 12.8729 7.9714L16.9324 6.60128C17.3211 6.47008 17.6241 6.16066 17.7469 5.76925L19.2752 0.899135Z" fill="black"/>
<path fill-rule="evenodd" clip-rule="evenodd" d="M67.8193 8.38477C70.8905 8.38478 73.5991 9.04134 75.9443 10.3535C78.2896 11.6379 80.1325 13.4254 81.4727 15.7148C82.8128 17.9764 83.4834 20.5874 83.4834 23.5469C83.4833 26.4784 82.8128 29.0895 81.4727 31.3789C80.1604 33.6403 78.3315 35.4271 75.9863 36.7393C73.641 38.0236 70.9466 38.666 67.9033 38.666C64.8321 38.666 62.1096 38.0236 59.7363 36.7393C58.228 35.8953 56.9275 34.8548 55.835 33.6182L54 31.3789L59.4014 25.9785L62.5742 29.5615H62.6025C62.9901 29.9293 63.4164 30.2566 63.8828 30.541C65.0554 31.211 66.3957 31.5459 67.9033 31.5459C69.4109 31.5459 70.7372 31.211 71.8818 30.541C73.0265 29.8431 73.9203 28.8938 74.5625 27.6934C75.2046 26.4929 75.5253 25.1102 75.5254 23.5469C75.5254 21.9834 75.1905 20.6009 74.5205 19.4004C73.8785 18.1721 72.9712 17.2228 71.7988 16.5527C70.6541 15.8547 69.327 15.5049 67.8193 15.5049C66.3396 15.5049 65.0134 15.8547 63.8408 16.5527C63.4655 16.7725 63.1163 17.023 62.792 17.3027L62.8223 17.3262L46.1543 33.9941C45.1452 35.0668 43.9649 35.9824 42.6123 36.7393C40.2671 38.0235 37.5724 38.6659 34.5293 38.666C31.458 38.666 28.7346 38.0236 26.3613 36.7393C24.0164 35.4271 22.1741 33.6401 20.834 31.3789C19.4939 29.0895 18.8233 26.4784 18.8232 23.5469C18.8232 22.4469 18.9171 21.3952 19.1025 20.3916L19.2051 20.4355C19.2789 20.4637 19.352 20.4887 19.4229 20.5107L19.5645 20.5498L19.5693 20.5518L19.5742 20.5527L19.5801 20.5547H19.584C19.67 20.5772 19.785 20.6053 19.9189 20.627L20.1104 20.6514L20.3848 20.6699C20.4572 20.6722 20.5389 20.6731 20.6279 20.6699L20.8994 20.6504L20.8984 20.6494C20.9765 20.6408 21.052 20.6305 21.123 20.6182L21.3916 20.5605H21.3887C21.3928 20.5595 21.4081 20.5557 21.4238 20.5518C21.4569 20.5435 21.5251 20.5261 21.6064 20.5L21.8857 20.3965L21.8848 20.3955C22.795 20.0178 23.5765 19.2532 23.918 18.165L25.291 13.7871L28.8613 12.582L29.083 12.499C29.1506 12.4711 29.2121 12.4434 29.2656 12.418L29.3584 12.3721L29.5352 12.2764C29.5925 12.2429 29.6487 12.2078 29.7031 12.1719L29.7939 12.1084L29.7969 12.1064L29.9717 11.9746C30.1409 11.8386 30.2947 11.6882 30.4326 11.5283C30.4403 11.5195 30.4546 11.5045 30.4697 11.4863L30.4688 11.4854C30.5467 11.392 30.6318 11.2823 30.7148 11.1553L30.7158 11.1543C30.733 11.128 30.7467 11.1057 30.7529 11.0957L30.7598 11.0859C30.8705 10.9074 30.9508 10.7381 31.0107 10.5967L31.0117 10.5957C31.0427 10.5224 31.0895 10.4081 31.1328 10.2695L31.1816 10.0898V10.0879C31.1993 10.0188 31.2245 9.91607 31.2451 9.79395C31.2524 9.75121 31.2627 9.68636 31.2715 9.61133L31.2949 9.28516V9.27539C31.2951 9.26936 31.2956 9.25841 31.2959 9.24609L31.2969 9.12598V9.12402L31.2871 8.92285C31.284 8.8819 31.28 8.84384 31.2764 8.80957C31.2759 8.8032 31.276 8.79612 31.2754 8.78906L31.2578 8.64746C32.2741 8.47315 33.3365 8.38477 34.4453 8.38477C37.5165 8.3848 40.225 9.04129 42.5703 10.3535C43.4168 10.8171 44.1975 11.3468 44.9131 11.9414L44.9404 11.915L45.2998 12.2744C45.6882 12.6218 46.0563 12.9902 46.4033 13.3789L48.5 15.5049L43.0918 20.9121L39.5283 17.3262H39.5195C39.1845 17.0367 38.8192 16.7787 38.4238 16.5527C37.2791 15.8548 35.9529 15.5049 34.4453 15.5049C32.9656 15.5049 31.6394 15.8548 30.4668 16.5527C29.3221 17.2228 28.4142 18.172 27.7441 19.4004C27.1021 20.6009 26.7813 21.9834 26.7812 23.5469C26.7813 25.1102 27.1161 26.4929 27.7861 27.6934C28.4562 28.8936 29.3634 29.8431 30.5078 30.541C31.6805 31.2111 33.0216 31.5459 34.5293 31.5459C36.0368 31.5458 37.3632 31.211 38.5078 30.541C38.9708 30.2587 39.3917 29.9339 39.7725 29.5693L39.7637 29.5615L55.6221 13.7031C56.7572 12.3506 58.1289 11.2338 59.7363 10.3535C62.0816 9.04135 64.7762 8.3848 67.8193 8.38477ZM30.4277 11.5352L30.4248 11.5391C30.4248 11.5391 30.4294 11.5341 30.4336 11.5293L30.4326 11.5283C30.4305 11.5307 30.4277 11.5352 30.4277 11.5352Z" fill="black"/>
<path d="M7.74805 30.583H17.457V37.7021H0V8.38477H7.74805V30.583Z" fill="black"/>
<path d="M101.548 18.7148L108.626 8.24414H117.212V37.5615H109.464V20.2227L101.59 31.6982L93.6328 20.2227V37.5615H85.8848V8.24414H94.4707L101.548 18.7148Z" fill="black"/>
<path d="M129.052 37.5615H121.304V8.24414H129.052V37.5615Z" fill="black"/>
<path d="M140.871 37.5615H133.123V8.24414H140.871V37.5615Z" fill="black"/>
</svg>
